<?xml version="1.0" encoding="utf-8"?>
<!-- Generator: Adobe Illustrator 21.0.0, SVG Export Plug-In . SVG Version: 6.00 Build 0)  -->
<svg version="1.1" id="Layer_1" xmlns="http://www.w3.org/2000/svg" xmlns:xlink="http://www.w3.org/1999/xlink" x="0px" y="0px"
	 viewBox="0 0 76.9 46.5" style="enable-background:new 0 0 76.9 46.5;" xml:space="preserve">
<path d="M1.1,23.6c0,1.1,0.9,2,2,2h66.4L52.3,42.8c-0.4,0.4-0.6,0.9-0.6,1.4s0.2,1,0.6,1.4c0.8,0.8,2,0.8,2.8,0l20.3-20.3
	c0.8-0.8,0.8-2,0-2.8L55.2,2.1c-0.8-0.8-2-0.8-2.8,0c-0.8,0.8-0.8,2,0,2.8L69,21.6H3.1C2,21.6,1.1,22.5,1.1,23.6z" fill="#fff"/>
</svg>
