<svg xmlns="http://www.w3.org/2000/svg" viewBox="0 0 1920 424.37239"><title>logo-white-1920</title><g id="Layer_2" data-name="Layer 2"><g id="Layer_1-2" data-name="Layer 1"><path d="M26.0176,373.2668,7.4526,346.5112H25.14418l9.9372,14.74226,9.828-14.74226H62.05484l-18.565,26.42733,20.858,30.03093H46.65749L34.86327,385.16995l-11.794,17.79951H5.70574Z" fill="#ff2b06"/><path d="M137.835,369.553H82.68762V357.868H137.835Zm0,23.37009H82.68762v-11.685H137.835Z" fill="#fff"/><path d="M180.09128,337.77569H164.58474V324.99813h15.50654Zm-15.50654,8.73551h15.50654v56.45826H164.58474Z" fill="#fff"/><path d="M190.13618,346.5112H204.8797v7.86232h.327a20.13743,20.13743,0,0,1,17.25437-9.39082c16.4889,0,20.63867,9.28189,20.63867,23.25992v34.72684H227.59324v-31.8877c0-9.28189-2.7302-13.86788-9.9372-13.86788-8.40847,0-12.01208,4.69492-12.01208,16.16185v29.59373H190.13618Z" fill="#fff"/><path d="M293.00024,395.76247h-.21812c-3.60338,6.11425-9.9372,8.73549-17.14544,8.73549-17.035,0-25.33456-14.63333-25.33456-30.2488,0-15.17949,8.40846-29.26646,25.00753-29.26646,6.66086,0,13.21378,2.83913,16.81716,8.40846h.10919v-28.393h15.50652v77.97133H293.00024ZM279.4594,356.66774c-10.1563,0-13.65074,8.73551-13.65074,18.01862,0,8.84469,4.04083,18.12658,13.65074,18.12658,10.26427,0,13.32272-8.95362,13.32272-18.23674C292.78212,365.40325,289.50579,356.66774,279.4594,356.66774Z" fill="#fff"/><path d="M330.01518,378.50786c.436,9.82827,5.24106,14.30508,13.86886,14.30508,6.22366,0,11.24784-3.82149,12.2302-7.31594h13.651c-4.3691,13.32247-13.651,19.001-26.42733,19.001-17.80076,0-28.82926-12.23018-28.82926-29.70242,0-16.92757,11.68382-29.81284,28.82926-29.81284,19.2191,0,28.50221,16.16185,27.40969,33.52516Zm25.22563-9.828c-1.41957-7.86232-4.80508-12.01209-12.34011-12.01209-9.82828,0-12.66741,7.64421-12.88552,12.01209Z" fill="#fff"/><path d="M377.73158,346.5112h14.74351v7.20823h.21811c3.71256-6.00656,9.828-8.73673,16.81717-8.73673,17.69035,0,25.66284,14.30606,25.66284,30.35775,0,15.07056-8.29953,29.15751-24.78965,29.15751-6.77077,0-13.21353-2.94829-16.92611-8.51762h-.21811v26.86331H377.73158Zm41.93387,28.39325c0-8.95482-3.60339-18.23671-13.54059-18.23671-10.15532,0-13.43166,9.06378-13.43166,18.23671s3.49445,17.90849,13.54059,17.90849C416.39035,392.81294,419.66545,384.07743,419.66545,374.90445Z" fill="#fff"/><path d="M455.043,378.50786c.436,9.82827,5.24106,14.30508,13.86886,14.30508,6.22342,0,11.24783-3.82149,12.2302-7.31594h13.65076c-4.36887,13.32247-13.65076,19.001-26.42735,19.001-17.80051,0-28.829-12.23018-28.829-29.70242,0-16.92757,11.68382-29.81284,28.829-29.81284,19.21912,0,28.50221,16.16185,27.40969,33.52516Zm25.22563-9.828c-1.41957-7.86232-4.80508-12.01209-12.34036-12.01209-9.828,0-12.66741,7.64421-12.88527,12.01209Z" fill="#fff"/><path d="M502.75936,346.5112h14.74351v7.86232h.327a20.13742,20.13742,0,0,1,17.25437-9.39082c16.4889,0,20.63866,9.28189,20.63866,23.25992v34.72684H540.21641v-31.8877c0-9.28189-2.73019-13.86788-9.9372-13.86788-8.40871,0-12.01209,4.69492-12.01209,16.16185v29.59373H502.75936Z" fill="#fff"/><path d="M605.62341,395.76247h-.21811c-3.60363,6.11425-9.93721,8.73549-17.14544,8.73549-17.035,0-25.33479-14.63333-25.33479-30.2488,0-15.17949,8.40869-29.26646,25.00774-29.26646,6.66087,0,13.21379,2.83913,16.81717,8.40846h.10893v-28.393H620.3657v77.97133H605.62341Zm-13.54083-39.09473c-10.1563,0-13.65075,8.73551-13.65075,18.01862,0,8.84469,4.04059,18.12658,13.65075,18.12658,10.26425,0,13.32272-8.95362,13.32272-18.23674C605.4053,365.40325,602.12874,356.66774,592.08258,356.66774Z" fill="#fff"/><path d="M642.63835,378.50786c.436,9.82827,5.24106,14.30508,13.86886,14.30508,6.22342,0,11.24784-3.82149,12.23022-7.31594h13.65073c-4.36886,13.32247-13.65073,19.001-26.42709,19.001-17.80075,0-28.82923-12.23018-28.82923-29.70242,0-16.92757,11.68379-29.81284,28.82923-29.81284,19.21885,0,28.502,16.16185,27.40945,33.52516Zm25.22566-9.828c-1.41959-7.86232-4.80511-12.01209-12.34039-12.01209-9.828,0-12.6674,7.64421-12.88527,12.01209Z" fill="#fff"/><path d="M690.35478,346.5112h14.74349v7.86232h.327a20.13743,20.13743,0,0,1,17.25437-9.39082c16.48893,0,20.63867,9.28189,20.63867,23.25992v34.72684H727.81181v-31.8877c0-9.28189-2.7302-13.86788-9.93721-13.86788-8.40846,0-12.01208,4.69492-12.01208,16.16185v29.59373H690.35478Z" fill="#fff"/><path d="M772.58015,346.5112h11.35677v10.37441H772.58015v27.95607c0,5.24226,1.3094,6.55169,6.55169,6.55169a23.89085,23.89085,0,0,0,4.80508-.436v12.121a59.42955,59.42955,0,0,1-9.064.54611c-9.501,0-17.80051-2.18379-17.80051-13.43163V356.88561h-9.39107V346.5112h9.39107V329.5851h15.50777Z" fill="#fff"/><path d="M789.61175,324.99813h15.50653v77.97133H789.61175Z" fill="#fff"/><path d="M843.01009,410.06729c-3.38552,9.065-8.73551,12.77636-19.43819,12.77636a92.15411,92.15411,0,0,1-9.5-.54614V409.52117a82.25869,82.25869,0,0,0,9.06378.54612c5.35023-.54612,7.09807-6.11569,5.35023-10.5925L808.6115,346.5112h16.59906l12.77634,38.65875h.21811l12.34038-38.65875h16.05292Z" fill="#fff"/><path d="M925.23548,344.9827c17.79953,0,29.26646,11.794,29.26646,29.81284,0,17.90846-11.46693,29.70242-29.26646,29.70242-17.69182,0-29.15753-11.794-29.15753-29.70242C896.078,356.77667,907.54366,344.9827,925.23548,344.9827Zm0,47.83024c10.59252,0,13.7587-9.0638,13.7587-18.0174,0-9.064-3.16618-18.1278-13.7587-18.1278-10.48359,0-13.651,9.06378-13.651,18.1278C911.58449,383.74914,914.75189,392.81294,925.23548,392.81294Z" fill="#fff"/><path d="M960.17432,346.5112h14.74351v10.48359h.21786a19.96349,19.96349,0,0,1,18.0189-12.01209,11.543,11.543,0,0,1,3.38426.54614v14.414a28.3465,28.3465,0,0,0-5.56933-.54491c-11.357,0-15.28744,8.18937-15.28744,18.12756v25.444H960.17432Z" fill="#fff"/><path d="M1054.74108,399.36586c0,9.28189-3.27637,25.00653-29.26649,25.00653-11.13866,0-24.13311-5.24007-24.89736-18.12657h15.39736c1.41981,5.78744,6.11448,7.75435,11.57491,7.75435,8.62777,0,12.55844-5.89881,12.44926-13.979v-7.42634h-.21787c-3.38551,5.8976-10.15654,8.737-16.92729,8.737-16.92635,0-24.13339-12.88676-24.13339-28.39327,0-14.63311,8.40871-27.95583,24.24352-27.95583,7.42487,0,13.10338,2.51209,16.81716,9.06378h.21787V346.5112h14.74232ZM1039.99876,374.031c0-9.17391-3.1674-17.36328-13.21354-17.36328-8.73575,0-12.55847,7.64421-12.55847,16.05292,0,8.08019,3.05724,16.9261,12.55847,16.9261C1035.63116,389.64676,1039.99876,382.11148,1039.99876,374.031Z" fill="#fff"/><path d="M1062.16249,363.87475c.87342-14.52418,13.86787-18.892,26.53528-18.892,11.24882,0,24.78965,2.51209,24.78965,16.05292V390.411c0,5.13213.54617,10.26548,1.9657,12.55845h-15.72559a23.0371,23.0371,0,0,1-1.09158-5.46037c-4.914,5.13335-12.12224,6.98887-19.00217,6.98887-10.70149,0-19.21913-5.35022-19.21913-16.92608,0-12.77634,9.61016-15.83483,19.21913-17.14544,9.50119-1.41957,18.3471-1.09132,18.3471-7.42512,0-6.66185-4.58721-7.64421-10.04761-7.64421-5.89637,0-9.71909,2.40193-10.26425,8.51764Zm35.81839,11.4657c-2.62126,2.29422-8.08166,2.40316-12.88674,3.27659-4.80508.98358-9.173,2.621-9.173,8.2995,0,5.78746,4.47807,7.207,9.50123,7.207,12.121,0,12.55847-9.609,12.55847-12.99445Z" fill="#fff"/><path d="M1123.31078,346.5112h14.74327v7.86232h.32705a20.13813,20.13813,0,0,1,17.25462-9.39082c16.48889,0,20.63866,9.28189,20.63866,23.25992v34.72684h-15.50654v-31.8877c0-9.28189-2.7302-13.86788-9.9372-13.86788-8.40871,0-12.01209,4.69492-12.01209,16.16185v29.59373h-15.50777Z" fill="#fff"/><path d="M1199.63833,337.77569h-15.50654V324.99813h15.50654Zm-15.50654,8.73551h15.50654v56.45826h-15.50654Z" fill="#fff"/><path d="M1206.18879,391.28444l29.37564-33.0882h-27.19035v-11.685h47.6109v11.685l-29.37417,33.0882h31.44905v11.685h-51.87107Z" fill="#fff"/><path d="M1276.94971,378.50786c.436,9.82827,5.24228,14.30508,13.86763,14.30508,6.22464,0,11.24906-3.82149,12.23118-7.31594h13.6498c-4.36767,13.32247-13.6498,19.001-26.42736,19.001-17.79929,0-28.828-12.23018-28.828-29.70242,0-16.92757,11.685-29.81284,28.828-29.81284,19.22032,0,28.50221,16.16185,27.41214,33.52516Zm25.2244-9.828c-1.4183-7.86232-4.80385-12.01209-12.33913-12.01209-9.82828,0-12.66741,7.64421-12.88527,12.01209Z" fill="#fff"/><path d="M1364.96475,395.76247h-.22053c-3.60342,6.11425-9.936,8.73549-17.143,8.73549-17.03749,0-25.337-14.63333-25.337-30.2488,0-15.17949,8.40969-29.26646,25.00874-29.26646,6.66087,0,13.21379,2.83913,16.81717,8.40846h.108v-28.393h15.509v77.97133h-14.74228Zm-13.54206-39.09473c-10.1563,0-13.64952,8.73551-13.64952,18.01862,0,8.84469,4.0396,18.12658,13.64952,18.12658,10.26425,0,13.32153-8.95362,13.32153-18.23674C1364.74422,365.40325,1361.46907,356.66774,1351.42269,356.66774Z" fill="#fff"/><path d="M1436.26566,339.41337h-23.36759V324.99813h63.88312v14.41524H1453.4111v63.55609h-17.14544Z" fill="#fff"/><path d="M1483.54486,324.99813h58.31506v14.41524H1500.6903v16.708h37.7841v13.32272h-37.7841v19.11016h42.04157v14.41522h-59.187Z" fill="#fff"/><path d="M1549.93667,324.99813h33.63409c20.20269,0,35.38095,12.66863,35.38095,38.54957,0,22.60461-11.57464,39.42176-35.38095,39.42176h-33.63409Zm17.1452,63.55611h15.28866c9.936,0,19.43824-6.11449,19.43824-23.36886,0-15.72587-5.46044-25.772-22.49793-25.772h-12.229Z" fill="#fff"/><path d="M1667.97776,378.50786c.436,9.82827,5.24229,14.30508,13.86763,14.30508,6.22465,0,11.24907-3.82149,12.23143-7.31594h13.64952c-4.36763,13.32247-13.64952,19.001-26.42733,19.001-17.79929,0-28.828-12.23018-28.828-29.70242,0-16.92757,11.685-29.81284,28.828-29.81284,19.22032,0,28.50221,16.16185,27.41214,33.52516Zm25.22445-9.828c-1.41839-7.86232-4.80385-12.01209-12.33918-12.01209-9.828,0-12.6674,7.64421-12.88527,12.01209Z" fill="#fff"/><path d="M1744.74374,402.96946h-17.2556l-19.328-56.45826h16.27078l11.90316,38.54835h.21816l11.90286-38.54835h15.39883Z" fill="#fff"/><path d="M1778.70144,378.50786c.43622,9.82827,5.24253,14.30508,13.86792,14.30508,6.2246,0,11.24877-3.82149,12.23114-7.31594h13.64976c-4.36788,13.32247-13.64976,19.001-26.42733,19.001-17.79953,0-28.828-12.23018-28.828-29.70242,0-16.92757,11.68509-29.81284,28.828-29.81284,19.22032,0,28.50221,16.16185,27.40969,33.52516Zm25.22465-9.828c-1.41834-7.86232-4.80386-12.01209-12.33914-12.01209-9.82827,0-12.6674,7.64421-12.88551,12.01209Z" fill="#fff"/><path d="M1826.41931,346.5112h14.742v7.86232h.32827a20.13882,20.13882,0,0,1,17.25339-9.39082c16.49111,0,20.64112,9.28189,20.64112,23.25992v34.72684h-15.50678v-31.8877c0-9.28189-2.73118-13.86788-9.93819-13.86788-8.40993,0-12.01331,4.69492-12.01331,16.16185v29.59373h-15.50654Z" fill="#fff"/><path d="M1908.64323,346.5112H1920v10.37441h-11.35677v27.95607c0,5.24226,1.31063,6.55169,6.55292,6.55169a23.85462,23.85462,0,0,0,4.80385-.436v12.121a59.38484,59.38484,0,0,1-9.06378.54611c-9.5,0-17.79953-2.18379-17.79953-13.43163V356.88561h-9.39205V346.5112h9.39205V329.5851h15.50654Z" fill="#fff"/><path d="M72.7563,67.03854H0V.49826H225.42145V67.03854H152.69238V260.11347H72.7563Z" fill="#ff2b06"/><path d="M237.84548.49826H456.67327V67.03854H317.83307V99.38972h138.8402V161.223H317.83307v32.35389h138.8775v66.53656H237.84548Z" fill="#ff2b06"/><path d="M470.13486.49826H601.39563c86.52358,0,117.10191,63.997,117.10191,129.4266,0,79.6532-42.17823,130.18861-132.721,130.18861H470.13486Zm79.98269,193.07865H581.399c49.82735,0,57.11213-40.37421,57.11213-64.76248,0-16.33093-5.11765-61.77589-62.93662-61.77589h-25.457Z" fill="#ff2b06"/><path d="M833.43109,160.06941,809.0308,119.60786l-23.794,40.46155h-58.605L782.26808,78.2562,728.69579,0H787.32l21.7108,38.68255L831.36332,0h58.60849L836.41522,78.2562l55.63638,81.81321Z" fill="#ff2b06"/><path d="M988.42084,173.50174q1.13151,20.96385,9.52935,34.0408,15.99312,24.48675,56.376,24.48374a96.436,96.436,0,0,0,32.95508-5.366q28.75436-10.397,28.75435-37.22811,0-20.12334-12.184-28.676-12.34911-8.38156-38.66449-14.58926l-32.32726-7.54588q-31.67895-7.37658-44.83664-16.26546-22.74609-15.42735-22.74368-46.11638,0-33.20271,22.35566-54.49975Q1009.99082.44481,1050.9521.443q37.69445,0,64.05079,18.6972Q1141.355,37.841,1141.35683,78.92279h-31.35841q-2.41308-19.78534-10.28973-30.35222-14.632-19.28284-49.67965-19.28525-28.297,0-40.67809,12.40937-12.37985,12.41238-12.378,28.84352,0,18.10975,14.62421,26.49493,9.58539,5.37019,43.38218,13.41556l33.47082,7.88208q24.2102,5.70279,37.36909,15.59546,22.7479,17.27286,22.7485,50.14,0,40.91728-29.0291,58.52454T1052.0788,260.1986q-44.81436,0-70.15908-23.47753-25.36161-23.30643-24.8573-63.21933Z" fill="#fff"/><path d="M1359.66915,13.68986q36.19419,19.28646,44.29679,67.58032h-33.037q-5.91428-26.99742-24.47169-39.32364-18.55982-12.32562-46.79842-12.325-33.50277,0-56.41093,25.65623-22.90876,25.658-22.90756,76.4686,0,43.93588,18.89964,71.52076,18.896,27.58668,61.62629,27.58547,32.69839,0,54.1515-19.36839,21.43743-19.36961,21.946-62.63369h-77.13739V121.18067h108.1596V252.98772H1386.522l-8.04958-31.69341q-16.65829,18.61224-29.52316,25.82373-21.61818,12.40876-54.93477,12.40936-43.05561,0-74.067-28.33982-33.81728-35.54889-33.81667-97.59754,0-61.87753,33.05389-98.435Q1250.58709.27671,1300.50233.2743,1334.70823.2743,1359.66915,13.68986Z" fill="#fff"/><path d="M1463.66056,6.64768h33.707V108.43631h126.60736V6.64768h33.707v246.34h-33.707V137.78233H1497.36758V252.98772h-33.707Z" fill="#fff"/></g></g></svg>